<?xml version="1.0" encoding="utf-8"?>
<!-- Generator: Adobe Illustrator 19.1.0, SVG Export Plug-In . SVG Version: 6.00 Build 0)  -->
<!DOCTYPE svg PUBLIC "-//W3C//DTD SVG 1.1//EN" "http://www.w3.org/Graphics/SVG/1.1/DTD/svg11.dtd">
<svg version="1.1" xmlns="http://www.w3.org/2000/svg" xmlns:xlink="http://www.w3.org/1999/xlink" x="0px" y="0px"
	 viewBox="0 0 124 105" style="enable-background:new 0 0 124 105;" xml:space="preserve">
<style type="text/css">
	.st0{fill:#0F1131;}
</style>
<g id="Buttons">
</g>
<g id="Layer_1">
</g>
<g id="Icons">
</g>
<g id="Images">
	<g>
		<path class="st0" d="M48.9,2v29.7c-0.6,1.1-1.2,2.2-1.7,3.4c-0.2,0.3-0.3,0.8-0.5,1.2c-0.9,2.5-1.5,5.1-1.7,7.8L13.7,17.8
			C22.9,8.1,35.6,2.4,48.9,2z"/>
		<path class="st0" d="M90.7,22.1c-0.3-0.2-0.5-0.3-0.8-0.5c-4.7-2.9-10.1-4.5-15.6-4.5c-3.5,0-7,0.6-10.3,1.8
			c-4,1.5-7.5,3.8-10.6,6.8c-0.6,0.6-1.1,1.2-1.7,1.8V2C67.5,2.5,81.7,10.2,90.7,22.1z"/>
		<path class="st0" d="M45.1,50L0.2,57.9c-0.2-1.8-0.3-3.6-0.3-5.4c0-11.9,4.2-23.4,11.9-32.5l33.2,27.8v0
			C44.9,48.5,45,49.2,45.1,50z"/>
		<path class="st0" d="M94.6,77c-1.1,2-2.3,3.9-3.7,5.7l-9-7.5c1.8-0.5,3.5-1.1,5.2-1.9c0.8-0.4,1.6-0.8,2.4-1.3L94.6,77z"/>
		<path class="st0" d="M74.5,66.7c-0.1,0-0.1,0-0.2,0c-0.1,0-0.2,0-0.2,0H74.5z"/>
		<path class="st0" d="M79.2,66.1c-0.5,0.1-1,0.2-1.5,0.3c0.1,0,0.2-0.1,0.4-0.1C78.4,66.3,78.8,66.2,79.2,66.1z"/>
		<path class="st0" d="M48.9,61.5V103c-24-0.7-44.5-18.5-48.4-42.2l45-7.9c0,0.1,0,0.1,0,0.2c0.3,1.5,0.8,3,1.4,4.5
			C47.5,58.9,48.2,60.3,48.9,61.5z"/>
		<path class="st0" d="M63.9,63.7c-1.3-0.8-2.6-1.8-3.7-2.9c-0.3-0.3-0.6-0.6-0.8-0.9L63.9,63.7z"/>
		<path class="st0" d="M89.1,84.9c-9.3,11.1-22.8,17.7-37.3,18.1V65.6c0.5,0.6,1.1,1.2,1.7,1.8c2.4,2.4,5.2,4.4,8.2,5.8
			c0.5,0.2,1,0.5,1.5,0.7c0.8,0.3,1.6,0.6,2.7,0.9c1.5,0.4,2.9,0.8,4.4,1c0.9,0.1,1.6,0.2,2.3,0.2c0.6,0,1.1,0.1,1.7,0.1
			c1.3,0,2.6-0.1,3.9-0.3L89.1,84.9z"/>
		<path class="st0" d="M78,66.3c-0.1,0-0.2,0.1-0.4,0.1c0.5-0.1,1-0.2,1.5-0.3C78.8,66.2,78.4,66.3,78,66.3z M74.1,66.7
			c0.1,0,0.2,0,0.2,0c0.1,0,0.1,0,0.2,0H74.1z M59.3,59.9c0.3,0.3,0.6,0.6,0.8,0.9c1.1,1.1,2.4,2.1,3.7,2.9L59.3,59.9z"/>
		<path class="st0" d="M122.7,88.3L97.1,62.7c-0.1-0.2-0.3-0.3-0.4-0.5c2.1-3,3.5-6.2,4.2-9.6c1.8-8.2-0.1-17.1-5.9-23.8
			c-0.4-0.5-0.9-1-1.4-1.5c-1.5-1.5-3.1-2.8-4.8-3.8c-4.4-2.8-9.4-4.1-14.5-4.1c-3.2,0-6.4,0.6-9.5,1.7c-3.6,1.3-6.9,3.4-9.8,6.3
			c-1.2,1.2-2.3,2.5-3.2,3.9c-1,1.5-1.9,3.1-2.6,4.8c-0.1,0.2-0.2,0.5-0.3,0.7c-0.1,0.1-0.1,0.3-0.2,0.4c-1.1,2.8-1.6,5.8-1.7,8.8
			c0,0.5,0,0.9,0,1.4c0,1,0.1,2.1,0.2,3.1c0.1,0.7,0.2,1.4,0.4,2.1c0,0,0,0.1,0,0.1c0.3,1.3,0.7,2.7,1.2,3.9c0,0.1,0.1,0.2,0.1,0.2
			c0.7,1.8,1.7,3.6,2.8,5.3c0.9,1.4,2,2.6,3.2,3.9c2.3,2.3,4.9,4.1,7.6,5.4c0.5,0.2,0.9,0.4,1.4,0.6c0.8,0.3,1.7,0.6,2.5,0.9
			c1.3,0.4,2.7,0.7,4.1,0.9c0.7,0.1,1.5,0.2,2.2,0.2c0.5,0,1,0,1.6,0c0.5,0,1,0,1.6-0.1c0.9,0,1.7-0.1,2.6-0.3
			c0.4-0.1,0.9-0.1,1.3-0.2c2.2-0.4,4.3-1.1,6.3-2.1c1.3-0.6,2.5-1.4,3.8-2.2c0.1,0.2,0.2,0.4,0.4,0.5l5.4,5.4l20.2,20.2
			c0.9,0.9,2,1.3,3.2,1.3c1.3,0,2.6-0.5,3.6-1.5v0C124.6,93.1,124.6,90.2,122.7,88.3z M93.8,51.4c-0.4,1.8-1.1,3.5-2.1,5.2
			c-0.9,1.5-1.9,2.9-3.2,4.2c-0.8,0.8-1.7,1.6-2.6,2.2c-0.9,0.6-1.8,1.2-2.7,1.6c-0.5,0.2-0.9,0.4-1.4,0.6c-0.2,0.1-0.5,0.2-0.7,0.3
			c-0.2,0.1-0.5,0.2-0.7,0.2c-0.2,0.1-0.5,0.1-0.7,0.2c-0.1,0-0.3,0.1-0.5,0.1c-0.5,0.1-1,0.2-1.5,0.3c-0.5,0.1-0.9,0.1-1.4,0.2
			c-0.2,0-0.4,0-0.6,0c-0.3,0-0.6,0-0.9,0c-0.1,0-0.1,0-0.2,0c-0.1,0-0.1,0-0.2,0c-0.1,0-0.2,0-0.2,0c-0.1,0-0.2,0-0.2,0l-0.5,0
			c-0.5,0-1.1-0.1-1.6-0.1c-0.5-0.1-0.9-0.1-1.4-0.2c-1.5-0.3-3-0.8-4.4-1.4c-0.3-0.1-0.6-0.3-0.9-0.4c-0.4-0.2-0.7-0.4-1.1-0.6
			c0,0,0,0,0,0c0,0,0,0,0,0c-1.3-0.8-2.6-1.8-3.7-2.9c-0.3-0.3-0.6-0.6-0.8-0.9c-1.4-1.6-2.5-3.3-3.3-5.1c-0.3-0.7-0.6-1.4-0.8-2.1
			c-0.2-0.5-0.3-1-0.4-1.4h0c-0.2-0.9-0.4-1.9-0.5-2.9c-0.5-5.6,1.4-11.5,5.7-15.8c0-0.1,0.1-0.1,0.1-0.1c2.2-2.2,4.8-3.8,7.6-4.8
			c0.5-0.2,1.1-0.3,1.6-0.5c0.2,0,0.3-0.1,0.5-0.1c0.5-0.1,1-0.2,1.5-0.3c2-0.3,4-0.3,5.9,0c0.6,0.1,1.3,0.2,1.9,0.4c0,0,0,0,0,0
			c0.6,0.2,1.2,0.3,1.9,0.6c2.8,1,5.3,2.5,7.5,4.7c1.8,1.8,3.2,3.9,4.2,6.2c0.4,0.9,0.7,1.9,1,2.8c0.2,0.9,0.4,1.9,0.5,2.9
			C94.6,46.7,94.4,49.1,93.8,51.4z"/>
		<path class="st0" d="M59.3,59.9c0.3,0.3,0.6,0.6,0.8,0.9c1.1,1.1,2.4,2.1,3.7,2.9L59.3,59.9z M74.1,66.7c0.1,0,0.2,0,0.2,0
			c0.1,0,0.1,0,0.2,0H74.1z M59.3,59.9c0.3,0.3,0.6,0.6,0.8,0.9c1.1,1.1,2.4,2.1,3.7,2.9L59.3,59.9z M74.1,66.7c0.1,0,0.2,0,0.2,0
			c0.1,0,0.1,0,0.2,0H74.1z M59.3,59.9c0.3,0.3,0.6,0.6,0.8,0.9c1.1,1.1,2.4,2.1,3.7,2.9L59.3,59.9z M74.1,66.7c0.1,0,0.2,0,0.2,0
			c0.1,0,0.1,0,0.2,0H74.1z"/>
		<path class="st0" d="M78,66.3c-0.1,0-0.2,0.1-0.4,0.1c0.5-0.1,1-0.2,1.5-0.3C78.8,66.2,78.4,66.3,78,66.3z M59.3,59.9
			c0.3,0.3,0.6,0.6,0.8,0.9c1.1,1.1,2.4,2.1,3.7,2.9L59.3,59.9z"/>
		<g>
			<path class="st0" d="M82.4,49.9c0.3,0.8,0.5,1.7,0.5,2.7c0,2-0.6,3.6-1.8,4.8c-1.2,1.2-2.9,1.9-5,2.2v3.5h-2.8v-3.4
				c-2.4-0.2-4.2-1.1-5.5-2.5c-1.3-1.4-1.9-3.3-1.9-5.7h5c0,1.4,0.3,2.4,1,3.2c0.7,0.7,1.6,1.1,2.8,1.1c1,0,1.8-0.3,2.4-0.8
				c0.6-0.5,0.9-1.3,0.9-2.2c0-0.9-0.3-1.7-0.8-2.3c-0.5-0.6-1.4-1.1-2.7-1.6c-0.7-0.3-1.4-0.5-1.9-0.8c-0.5-0.2-0.9-0.4-1.3-0.6
				c-0.9-0.5-1.7-1-2.3-1.6c0,0-0.1,0-0.1-0.1c-0.1-0.1-0.2-0.2-0.3-0.3c-0.1-0.1-0.1-0.1-0.1-0.2c0,0,0,0,0,0
				c-0.1-0.1-0.2-0.2-0.2-0.3c0-0.1-0.1-0.1-0.1-0.2c0,0,0-0.1-0.1-0.1c-0.1-0.1-0.2-0.3-0.3-0.4c-0.1-0.2-0.2-0.4-0.3-0.6
				c-0.4-0.8-0.5-1.8-0.5-2.9c0-2,0.6-3.5,1.9-4.8c1.3-1.2,2.9-2,5-2.2v-3.7h2.8v3.8c2,0.3,3.6,1.1,4.8,2.6c1.1,1.4,1.7,3.2,1.7,5.5
				h-5c0-1.4-0.3-2.4-0.9-3.1c-0.6-0.7-1.3-1-2.3-1c-0.9,0-1.7,0.3-2.2,0.8c-0.5,0.5-0.8,1.3-0.8,2.2c0,0.9,0.2,1.6,0.8,2.1
				c0.5,0.5,1.5,1.1,2.8,1.6c0,0,0.1,0,0.1,0c0.2,0.1,0.3,0.1,0.5,0.2c0.2,0.1,0.3,0.1,0.5,0.2c0.9,0.4,1.7,0.8,2.3,1.1
				c0.4,0.2,0.7,0.4,1.1,0.7c0.1,0,0.1,0.1,0.2,0.1c0.2,0.1,0.3,0.3,0.5,0.4c0.2,0.1,0.3,0.3,0.5,0.5C81.6,48.4,82.1,49.1,82.4,49.9
				z"/>
		</g>
	</g>
</g>
<g id="Background">
</g>
</svg>
