<svg xmlns="http://www.w3.org/2000/svg" viewBox="0 0 124 105" enable-background="new 0 0 124 105"><style type="text/css">.st0{fill:#0F1131;}</style><path class="st0" d="M39.1 29.8v8.2c0 .9-.7 1.6-1.6 1.6h-14.3c-.9 0-1.6-.7-1.6-1.6v-8.2c0-.9.7-1.6 1.6-1.6h14.3c.9-.1 1.6.7 1.6 1.6zm0 15.1v8.2c0 .9-.7 1.6-1.6 1.6h-14.3c-.9 0-1.6-.7-1.6-1.6v-8.2c0-.9.7-1.6 1.6-1.6h14.3c.9-.1 1.6.6 1.6 1.6zm0 15v8.2c0 .9-.7 1.6-1.6 1.6h-14.3c-.9 0-1.6-.7-1.6-1.6v-8.2c0-.9.7-1.6 1.6-1.6h14.3c.9 0 1.6.7 1.6 1.6zm0 15.1v8.2c0 .9-.7 1.6-1.6 1.6h-14.3c-.9 0-1.6-.7-1.6-1.6v-8.2c0-.9.7-1.6 1.6-1.6h14.3c.9 0 1.6.7 1.6 1.6zm21.1-45.2v8.2c0 .9-.7 1.6-1.6 1.6h-14.3c-.9 0-1.6-.7-1.6-1.6v-8.2c0-.9.7-1.6 1.6-1.6h14.3c.9-.1 1.6.7 1.6 1.6zm0 15.1v8.2c0 .9-.7 1.6-1.6 1.6h-14.3c-.9 0-1.6-.7-1.6-1.6v-8.2c0-.9.7-1.6 1.6-1.6h14.3c.9-.1 1.6.6 1.6 1.6zm0 15v8.2c0 .9-.7 1.6-1.6 1.6h-14.3c-.9 0-1.6-.7-1.6-1.6v-8.2c0-.9.7-1.6 1.6-1.6h14.3c.9 0 1.6.7 1.6 1.6zm0 15.1v8.2c0 .9-.7 1.6-1.6 1.6h-14.3c-.9 0-1.6-.7-1.6-1.6v-8.2c0-.9.7-1.6 1.6-1.6h14.3c.9 0 1.6.7 1.6 1.6zm21.1-45.2v8.2c0 .9-.7 1.6-1.6 1.6h-14.3c-.9 0-1.6-.7-1.6-1.6v-8.2c0-.9.7-1.6 1.6-1.6h14.3c.9-.1 1.6.7 1.6 1.6zm0 15.1v8.2c0 .9-.7 1.6-1.6 1.6h-14.3c-.9 0-1.6-.7-1.6-1.6v-8.2c0-.9.7-1.6 1.6-1.6h14.3c.9-.1 1.6.6 1.6 1.6zm0 15v8.2c0 .9-.7 1.6-1.6 1.6h-14.3c-.9 0-1.6-.7-1.6-1.6v-8.2c0-.9.7-1.6 1.6-1.6h14.3c.9 0 1.6.7 1.6 1.6zm0 15.1v8.2c0 .9-.7 1.6-1.6 1.6h-14.3c-.9 0-1.6-.7-1.6-1.6v-8.2c0-.9.7-1.6 1.6-1.6h14.3c.9 0 1.6.7 1.6 1.6zm21.2-45.2v8.2c0 .9-.7 1.6-1.6 1.6h-14.3c-.9 0-1.6-.7-1.6-1.6v-8.2c0-.9.7-1.6 1.6-1.6h14.3c.8-.1 1.6.7 1.6 1.6zm0 15.1v8.2c0 .9-.7 1.6-1.6 1.6h-14.3c-.9 0-1.6-.7-1.6-1.6v-8.2c0-.9.7-1.6 1.6-1.6h14.3c.8-.1 1.6.6 1.6 1.6zm0 15v8.2c0 .9-.7 1.6-1.6 1.6h-14.3c-.9 0-1.6-.7-1.6-1.6v-8.2c0-.9.7-1.6 1.6-1.6h14.3c.8 0 1.6.7 1.6 1.6zm0 15.1v8.2c0 .9-.7 1.6-1.6 1.6h-14.3c-.9 0-1.6-.7-1.6-1.6v-8.2c0-.9.7-1.6 1.6-1.6h14.3c.8 0 1.6.7 1.6 1.6zm-63.4-45.2v8.2c0 .9-.7 1.6-1.6 1.6h-14.3c-.9 0-1.6-.7-1.6-1.6v-8.2c0-.9.7-1.6 1.6-1.6h14.3c.9-.1 1.6.7 1.6 1.6zm0 15.1v8.2c0 .9-.7 1.6-1.6 1.6h-14.3c-.9 0-1.6-.7-1.6-1.6v-8.2c0-.9.7-1.6 1.6-1.6h14.3c.9-.1 1.6.6 1.6 1.6zm0 15v8.2c0 .9-.7 1.6-1.6 1.6h-14.3c-.9 0-1.6-.7-1.6-1.6v-8.2c0-.9.7-1.6 1.6-1.6h14.3c.9 0 1.6.7 1.6 1.6zm0 15.1v8.2c0 .9-.7 1.6-1.6 1.6h-14.3c-.9 0-1.6-.7-1.6-1.6v-8.2c0-.9.7-1.6 1.6-1.6h14.3c.9 0 1.6.7 1.6 1.6zm21.1-45.2v8.2c0 .9-.7 1.6-1.6 1.6h-14.3c-.9 0-1.6-.7-1.6-1.6v-8.2c0-.9.7-1.6 1.6-1.6h14.3c.9-.1 1.6.7 1.6 1.6zm0 15.1v8.2c0 .9-.7 1.6-1.6 1.6h-14.3c-.9 0-1.6-.7-1.6-1.6v-8.2c0-.9.7-1.6 1.6-1.6h14.3c.9-.1 1.6.6 1.6 1.6zm0 15v8.2c0 .9-.7 1.6-1.6 1.6h-14.3c-.9 0-1.6-.7-1.6-1.6v-8.2c0-.9.7-1.6 1.6-1.6h14.3c.9 0 1.6.7 1.6 1.6zm0 15.1v8.2c0 .9-.7 1.6-1.6 1.6h-14.3c-.9 0-1.6-.7-1.6-1.6v-8.2c0-.9.7-1.6 1.6-1.6h14.3c.9 0 1.6.7 1.6 1.6zm21.1-45.2v8.2c0 .9-.7 1.6-1.6 1.6h-14.3c-.9 0-1.6-.7-1.6-1.6v-8.2c0-.9.7-1.6 1.6-1.6h14.3c.9-.1 1.6.7 1.6 1.6zm0 15.1v8.2c0 .9-.7 1.6-1.6 1.6h-14.3c-.9 0-1.6-.7-1.6-1.6v-8.2c0-.9.7-1.6 1.6-1.6h14.3c.9-.1 1.6.6 1.6 1.6zm0 15v8.2c0 .9-.7 1.6-1.6 1.6h-14.3c-.9 0-1.6-.7-1.6-1.6v-8.2c0-.9.7-1.6 1.6-1.6h14.3c.9 0 1.6.7 1.6 1.6zm0 15.1v8.2c0 .9-.7 1.6-1.6 1.6h-14.3c-.9 0-1.6-.7-1.6-1.6v-8.2c0-.9.7-1.6 1.6-1.6h14.3c.9 0 1.6.7 1.6 1.6zm21.2-45.2v8.2c0 .9-.7 1.6-1.6 1.6h-14.3c-.9 0-1.6-.7-1.6-1.6v-8.2c0-.9.7-1.6 1.6-1.6h14.3c.8-.1 1.6.7 1.6 1.6zm0 15.1v8.2c0 .9-.7 1.6-1.6 1.6h-14.3c-.9 0-1.6-.7-1.6-1.6v-8.2c0-.9.7-1.6 1.6-1.6h14.3c.8-.1 1.6.6 1.6 1.6zm0 15v8.2c0 .9-.7 1.6-1.6 1.6h-14.3c-.9 0-1.6-.7-1.6-1.6v-8.2c0-.9.7-1.6 1.6-1.6h14.3c.8 0 1.6.7 1.6 1.6zm0 15.1v8.2c0 .9-.7 1.6-1.6 1.6h-14.3c-.9 0-1.6-.7-1.6-1.6v-8.2c0-.9.7-1.6 1.6-1.6h14.3c.8 0 1.6.7 1.6 1.6zm9.6-67.1h-100.2c-4.7 0-8.6 3.8-8.6 8.6v80.1c0 4.7 3.8 8.6 8.6 8.6h100.2c4.7 0 8.6-3.8 8.6-8.6v-80.1c0-4.8-3.9-8.6-8.6-8.6zm1.4 88.7c0 .8-.6 1.4-1.4 1.4h-100.2c-.8 0-1.4-.6-1.4-1.4v-80.1c0-.8.6-1.4 1.4-1.4h100.2c.8 0 1.4.6 1.4 1.4v80.1zm-74.4-66.8v8.2c0 .9-.7 1.6-1.6 1.6h-14.3c-.9 0-1.6-.7-1.6-1.6v-8.2c0-.9.7-1.6 1.6-1.6h14.3c.9-.1 1.6.7 1.6 1.6zm0 15.1v8.2c0 .9-.7 1.6-1.6 1.6h-14.3c-.9 0-1.6-.7-1.6-1.6v-8.2c0-.9.7-1.6 1.6-1.6h14.3c.9-.1 1.6.6 1.6 1.6zm0 15v8.2c0 .9-.7 1.6-1.6 1.6h-14.3c-.9 0-1.6-.7-1.6-1.6v-8.2c0-.9.7-1.6 1.6-1.6h14.3c.9 0 1.6.7 1.6 1.6zm0 15.1v8.2c0 .9-.7 1.6-1.6 1.6h-14.3c-.9 0-1.6-.7-1.6-1.6v-8.2c0-.9.7-1.6 1.6-1.6h14.3c.9 0 1.6.7 1.6 1.6zm21.1-45.2v8.2c0 .9-.7 1.6-1.6 1.6h-14.3c-.9 0-1.6-.7-1.6-1.6v-8.2c0-.9.7-1.6 1.6-1.6h14.3c.9-.1 1.6.7 1.6 1.6zm0 15.1v8.2c0 .9-.7 1.6-1.6 1.6h-14.3c-.9 0-1.6-.7-1.6-1.6v-8.2c0-.9.7-1.6 1.6-1.6h14.3c.9-.1 1.6.6 1.6 1.6zm0 15v8.2c0 .9-.7 1.6-1.6 1.6h-14.3c-.9 0-1.6-.7-1.6-1.6v-8.2c0-.9.7-1.6 1.6-1.6h14.3c.9 0 1.6.7 1.6 1.6zm0 15.1v8.2c0 .9-.7 1.6-1.6 1.6h-14.3c-.9 0-1.6-.7-1.6-1.6v-8.2c0-.9.7-1.6 1.6-1.6h14.3c.9 0 1.6.7 1.6 1.6zm21.1-45.2v8.2c0 .9-.7 1.6-1.6 1.6h-14.3c-.9 0-1.6-.7-1.6-1.6v-8.2c0-.9.7-1.6 1.6-1.6h14.3c.9-.1 1.6.7 1.6 1.6zm0 15.1v8.2c0 .9-.7 1.6-1.6 1.6h-14.3c-.9 0-1.6-.7-1.6-1.6v-8.2c0-.9.7-1.6 1.6-1.6h14.3c.9-.1 1.6.6 1.6 1.6zm0 15v8.2c0 .9-.7 1.6-1.6 1.6h-14.3c-.9 0-1.6-.7-1.6-1.6v-8.2c0-.9.7-1.6 1.6-1.6h14.3c.9 0 1.6.7 1.6 1.6zm0 15.1v8.2c0 .9-.7 1.6-1.6 1.6h-14.3c-.9 0-1.6-.7-1.6-1.6v-8.2c0-.9.7-1.6 1.6-1.6h14.3c.9 0 1.6.7 1.6 1.6zm21.2-45.2v8.2c0 .9-.7 1.6-1.6 1.6h-14.3c-.9 0-1.6-.7-1.6-1.6v-8.2c0-.9.7-1.6 1.6-1.6h14.3c.8-.1 1.6.7 1.6 1.6zm0 15.1v8.2c0 .9-.7 1.6-1.6 1.6h-14.3c-.9 0-1.6-.7-1.6-1.6v-8.2c0-.9.7-1.6 1.6-1.6h14.3c.8-.1 1.6.6 1.6 1.6zm0 15v8.2c0 .9-.7 1.6-1.6 1.6h-14.3c-.9 0-1.6-.7-1.6-1.6v-8.2c0-.9.7-1.6 1.6-1.6h14.3c.8 0 1.6.7 1.6 1.6zm0 15.1v8.2c0 .9-.7 1.6-1.6 1.6h-14.3c-.9 0-1.6-.7-1.6-1.6v-8.2c0-.9.7-1.6 1.6-1.6h14.3c.8 0 1.6.7 1.6 1.6zm-63.4-45.2v8.2c0 .9-.7 1.6-1.6 1.6h-14.3c-.9 0-1.6-.7-1.6-1.6v-8.2c0-.9.7-1.6 1.6-1.6h14.3c.9-.1 1.6.7 1.6 1.6zm21.1 0v8.2c0 .9-.7 1.6-1.6 1.6h-14.3c-.9 0-1.6-.7-1.6-1.6v-8.2c0-.9.7-1.6 1.6-1.6h14.3c.9-.1 1.6.7 1.6 1.6zm21.1 0v8.2c0 .9-.7 1.6-1.6 1.6h-14.3c-.9 0-1.6-.7-1.6-1.6v-8.2c0-.9.7-1.6 1.6-1.6h14.3c.9-.1 1.6.7 1.6 1.6zm21.2 0v8.2c0 .9-.7 1.6-1.6 1.6h-14.3c-.9 0-1.6-.7-1.6-1.6v-8.2c0-.9.7-1.6 1.6-1.6h14.3c.8-.1 1.6.7 1.6 1.6zm-63.4 15.1v8.2c0 .9-.7 1.6-1.6 1.6h-14.3c-.9 0-1.6-.7-1.6-1.6v-8.2c0-.9.7-1.6 1.6-1.6h14.3c.9-.1 1.6.6 1.6 1.6zm21.1 0v8.2c0 .9-.7 1.6-1.6 1.6h-14.3c-.9 0-1.6-.7-1.6-1.6v-8.2c0-.9.7-1.6 1.6-1.6h14.3c.9-.1 1.6.6 1.6 1.6zm21.1 0v8.2c0 .9-.7 1.6-1.6 1.6h-14.3c-.9 0-1.6-.7-1.6-1.6v-8.2c0-.9.7-1.6 1.6-1.6h14.3c.9-.1 1.6.6 1.6 1.6zm21.2 0v8.2c0 .9-.7 1.6-1.6 1.6h-14.3c-.9 0-1.6-.7-1.6-1.6v-8.2c0-.9.7-1.6 1.6-1.6h14.3c.8-.1 1.6.6 1.6 1.6zm-63.4 15v8.2c0 .9-.7 1.6-1.6 1.6h-14.3c-.9 0-1.6-.7-1.6-1.6v-8.2c0-.9.7-1.6 1.6-1.6h14.3c.9 0 1.6.7 1.6 1.6zm21.1 0v8.2c0 .9-.7 1.6-1.6 1.6h-14.3c-.9 0-1.6-.7-1.6-1.6v-8.2c0-.9.7-1.6 1.6-1.6h14.3c.9 0 1.6.7 1.6 1.6zm21.1 0v8.2c0 .9-.7 1.6-1.6 1.6h-14.3c-.9 0-1.6-.7-1.6-1.6v-8.2c0-.9.7-1.6 1.6-1.6h14.3c.9 0 1.6.7 1.6 1.6zm21.2 0v8.2c0 .9-.7 1.6-1.6 1.6h-14.3c-.9 0-1.6-.7-1.6-1.6v-8.2c0-.9.7-1.6 1.6-1.6h14.3c.8 0 1.6.7 1.6 1.6zm-63.4 15.1v8.2c0 .9-.7 1.6-1.6 1.6h-14.3c-.9 0-1.6-.7-1.6-1.6v-8.2c0-.9.7-1.6 1.6-1.6h14.3c.9 0 1.6.7 1.6 1.6zm21.1 0v8.2c0 .9-.7 1.6-1.6 1.6h-14.3c-.9 0-1.6-.7-1.6-1.6v-8.2c0-.9.7-1.6 1.6-1.6h14.3c.9 0 1.6.7 1.6 1.6zm21.1 0v8.2c0 .9-.7 1.6-1.6 1.6h-14.3c-.9 0-1.6-.7-1.6-1.6v-8.2c0-.9.7-1.6 1.6-1.6h14.3c.9 0 1.6.7 1.6 1.6zm21.2 0v8.2c0 .9-.7 1.6-1.6 1.6h-14.3c-.9 0-1.6-.7-1.6-1.6v-8.2c0-.9.7-1.6 1.6-1.6h14.3c.8 0 1.6.7 1.6 1.6zm-40-53.3h-1c-1.5 0-2.7-1.2-2.7-2.7v-16.4c0-1.5 1.2-2.7 2.7-2.7h1c1.5 0 2.7 1.2 2.7 2.7v16.4c.1 1.5-1.2 2.7-2.7 2.7zm31.7.6h-1c-1.5 0-2.7-1.2-2.7-2.7v-16.4c0-1.5 1.2-2.7 2.7-2.7h1c1.5 0 2.7 1.2 2.7 2.7v16.4c.1 1.5-1.2 2.7-2.7 2.7zm-63.4-.6h-1c-1.5 0-2.7-1.2-2.7-2.7v-16.4c0-1.5 1.2-2.7 2.7-2.7h1c1.5 0 2.7 1.2 2.7 2.7v16.4c.1 1.5-1.2 2.7-2.7 2.7z" id="Images"/></svg>