<?xml version="1.0" encoding="utf-8"?>
<!-- Generator: Adobe Illustrator 19.1.0, SVG Export Plug-In . SVG Version: 6.00 Build 0)  -->
<!DOCTYPE svg PUBLIC "-//W3C//DTD SVG 1.1//EN" "http://www.w3.org/Graphics/SVG/1.1/DTD/svg11.dtd">
<svg version="1.1" xmlns="http://www.w3.org/2000/svg" xmlns:xlink="http://www.w3.org/1999/xlink" x="0px" y="0px"
	 viewBox="0 0 124 105" style="enable-background:new 0 0 124 105;" xml:space="preserve">
<style type="text/css">
	.st0{fill:#0F1131;}
</style>
<g id="Buttons">
</g>
<g id="Layer_1">
</g>
<g id="Icons">
</g>
<g id="Images">
	<g>
		<path class="st0" d="M39.1,29.8V38c0,0.9-0.7,1.6-1.6,1.6H23.2c-0.9,0-1.6-0.7-1.6-1.6v-8.2c0-0.9,0.7-1.6,1.6-1.6h14.3
			C38.4,28.1,39.1,28.9,39.1,29.8z"/>
		<path class="st0" d="M39.1,44.9v8.2c0,0.9-0.7,1.6-1.6,1.6H23.2c-0.9,0-1.6-0.7-1.6-1.6v-8.2c0-0.9,0.7-1.6,1.6-1.6h14.3
			C38.4,43.2,39.1,43.9,39.1,44.9z"/>
		<path class="st0" d="M39.1,59.9v8.2c0,0.9-0.7,1.6-1.6,1.6H23.2c-0.9,0-1.6-0.7-1.6-1.6v-8.2c0-0.9,0.7-1.6,1.6-1.6h14.3
			C38.4,58.3,39.1,59,39.1,59.9z"/>
		<path class="st0" d="M39.1,75v8.2c0,0.9-0.7,1.6-1.6,1.6H23.2c-0.9,0-1.6-0.7-1.6-1.6V75c0-0.9,0.7-1.6,1.6-1.6h14.3
			C38.4,73.4,39.1,74.1,39.1,75z"/>
		<path class="st0" d="M60.2,29.8V38c0,0.9-0.7,1.6-1.6,1.6H44.3c-0.9,0-1.6-0.7-1.6-1.6v-8.2c0-0.9,0.7-1.6,1.6-1.6h14.3
			C59.5,28.1,60.2,28.9,60.2,29.8z"/>
		<path class="st0" d="M60.2,44.9v8.2c0,0.9-0.7,1.6-1.6,1.6H44.3c-0.9,0-1.6-0.7-1.6-1.6v-8.2c0-0.9,0.7-1.6,1.6-1.6h14.3
			C59.5,43.2,60.2,43.9,60.2,44.9z"/>
		<path class="st0" d="M60.2,59.9v8.2c0,0.9-0.7,1.6-1.6,1.6H44.3c-0.9,0-1.6-0.7-1.6-1.6v-8.2c0-0.9,0.7-1.6,1.6-1.6h14.3
			C59.5,58.3,60.2,59,60.2,59.9z"/>
		<path class="st0" d="M60.2,75v8.2c0,0.9-0.7,1.6-1.6,1.6H44.3c-0.9,0-1.6-0.7-1.6-1.6V75c0-0.9,0.7-1.6,1.6-1.6h14.3
			C59.5,73.4,60.2,74.1,60.2,75z"/>
		<path class="st0" d="M81.3,29.8V38c0,0.9-0.7,1.6-1.6,1.6H65.4c-0.9,0-1.6-0.7-1.6-1.6v-8.2c0-0.9,0.7-1.6,1.6-1.6h14.3
			C80.6,28.1,81.3,28.9,81.3,29.8z"/>
		<path class="st0" d="M81.3,44.9v8.2c0,0.9-0.7,1.6-1.6,1.6H65.4c-0.9,0-1.6-0.7-1.6-1.6v-8.2c0-0.9,0.7-1.6,1.6-1.6h14.3
			C80.6,43.2,81.3,43.9,81.3,44.9z"/>
		<path class="st0" d="M81.3,59.9v8.2c0,0.9-0.7,1.6-1.6,1.6H65.4c-0.9,0-1.6-0.7-1.6-1.6v-8.2c0-0.9,0.7-1.6,1.6-1.6h14.3
			C80.6,58.3,81.3,59,81.3,59.9z"/>
		<path class="st0" d="M81.3,75v8.2c0,0.9-0.7,1.6-1.6,1.6H65.4c-0.9,0-1.6-0.7-1.6-1.6V75c0-0.9,0.7-1.6,1.6-1.6h14.3
			C80.6,73.4,81.3,74.1,81.3,75z"/>
		<path class="st0" d="M102.5,29.8V38c0,0.9-0.7,1.6-1.6,1.6H86.6c-0.9,0-1.6-0.7-1.6-1.6v-8.2c0-0.9,0.7-1.6,1.6-1.6h14.3
			C101.7,28.1,102.5,28.9,102.5,29.8z"/>
		<path class="st0" d="M102.5,44.9v8.2c0,0.9-0.7,1.6-1.6,1.6H86.6c-0.9,0-1.6-0.7-1.6-1.6v-8.2c0-0.9,0.7-1.6,1.6-1.6h14.3
			C101.7,43.2,102.5,43.9,102.5,44.9z"/>
		<path class="st0" d="M102.5,59.9v8.2c0,0.9-0.7,1.6-1.6,1.6H86.6c-0.9,0-1.6-0.7-1.6-1.6v-8.2c0-0.9,0.7-1.6,1.6-1.6h14.3
			C101.7,58.3,102.5,59,102.5,59.9z"/>
		<path class="st0" d="M102.5,75v8.2c0,0.9-0.7,1.6-1.6,1.6H86.6c-0.9,0-1.6-0.7-1.6-1.6V75c0-0.9,0.7-1.6,1.6-1.6h14.3
			C101.7,73.4,102.5,74.1,102.5,75z"/>
		<path class="st0" d="M39.1,29.8V38c0,0.9-0.7,1.6-1.6,1.6H23.2c-0.9,0-1.6-0.7-1.6-1.6v-8.2c0-0.9,0.7-1.6,1.6-1.6h14.3
			C38.4,28.1,39.1,28.9,39.1,29.8z"/>
		<path class="st0" d="M39.1,44.9v8.2c0,0.9-0.7,1.6-1.6,1.6H23.2c-0.9,0-1.6-0.7-1.6-1.6v-8.2c0-0.9,0.7-1.6,1.6-1.6h14.3
			C38.4,43.2,39.1,43.9,39.1,44.9z"/>
		<path class="st0" d="M39.1,59.9v8.2c0,0.9-0.7,1.6-1.6,1.6H23.2c-0.9,0-1.6-0.7-1.6-1.6v-8.2c0-0.9,0.7-1.6,1.6-1.6h14.3
			C38.4,58.3,39.1,59,39.1,59.9z"/>
		<path class="st0" d="M39.1,75v8.2c0,0.9-0.7,1.6-1.6,1.6H23.2c-0.9,0-1.6-0.7-1.6-1.6V75c0-0.9,0.7-1.6,1.6-1.6h14.3
			C38.4,73.4,39.1,74.1,39.1,75z"/>
		<path class="st0" d="M60.2,29.8V38c0,0.9-0.7,1.6-1.6,1.6H44.3c-0.9,0-1.6-0.7-1.6-1.6v-8.2c0-0.9,0.7-1.6,1.6-1.6h14.3
			C59.5,28.1,60.2,28.9,60.2,29.8z"/>
		<path class="st0" d="M60.2,44.9v8.2c0,0.9-0.7,1.6-1.6,1.6H44.3c-0.9,0-1.6-0.7-1.6-1.6v-8.2c0-0.9,0.7-1.6,1.6-1.6h14.3
			C59.5,43.2,60.2,43.9,60.2,44.9z"/>
		<path class="st0" d="M60.2,59.9v8.2c0,0.9-0.7,1.6-1.6,1.6H44.3c-0.9,0-1.6-0.7-1.6-1.6v-8.2c0-0.9,0.7-1.6,1.6-1.6h14.3
			C59.5,58.3,60.2,59,60.2,59.9z"/>
		<path class="st0" d="M60.2,75v8.2c0,0.9-0.7,1.6-1.6,1.6H44.3c-0.9,0-1.6-0.7-1.6-1.6V75c0-0.9,0.7-1.6,1.6-1.6h14.3
			C59.5,73.4,60.2,74.1,60.2,75z"/>
		<path class="st0" d="M81.3,29.8V38c0,0.9-0.7,1.6-1.6,1.6H65.4c-0.9,0-1.6-0.7-1.6-1.6v-8.2c0-0.9,0.7-1.6,1.6-1.6h14.3
			C80.6,28.1,81.3,28.9,81.3,29.8z"/>
		<path class="st0" d="M81.3,44.9v8.2c0,0.9-0.7,1.6-1.6,1.6H65.4c-0.9,0-1.6-0.7-1.6-1.6v-8.2c0-0.9,0.7-1.6,1.6-1.6h14.3
			C80.6,43.2,81.3,43.9,81.3,44.9z"/>
		<path class="st0" d="M81.3,59.9v8.2c0,0.9-0.7,1.6-1.6,1.6H65.4c-0.9,0-1.6-0.7-1.6-1.6v-8.2c0-0.9,0.7-1.6,1.6-1.6h14.3
			C80.6,58.3,81.3,59,81.3,59.9z"/>
		<path class="st0" d="M81.3,75v8.2c0,0.9-0.7,1.6-1.6,1.6H65.4c-0.9,0-1.6-0.7-1.6-1.6V75c0-0.9,0.7-1.6,1.6-1.6h14.3
			C80.6,73.4,81.3,74.1,81.3,75z"/>
		<path class="st0" d="M102.5,29.8V38c0,0.9-0.7,1.6-1.6,1.6H86.6c-0.9,0-1.6-0.7-1.6-1.6v-8.2c0-0.9,0.7-1.6,1.6-1.6h14.3
			C101.7,28.1,102.5,28.9,102.5,29.8z"/>
		<path class="st0" d="M102.5,44.9v8.2c0,0.9-0.7,1.6-1.6,1.6H86.6c-0.9,0-1.6-0.7-1.6-1.6v-8.2c0-0.9,0.7-1.6,1.6-1.6h14.3
			C101.7,43.2,102.5,43.9,102.5,44.9z"/>
		<path class="st0" d="M102.5,59.9v8.2c0,0.9-0.7,1.6-1.6,1.6H86.6c-0.9,0-1.6-0.7-1.6-1.6v-8.2c0-0.9,0.7-1.6,1.6-1.6h14.3
			C101.7,58.3,102.5,59,102.5,59.9z"/>
		<path class="st0" d="M102.5,75v8.2c0,0.9-0.7,1.6-1.6,1.6H86.6c-0.9,0-1.6-0.7-1.6-1.6V75c0-0.9,0.7-1.6,1.6-1.6h14.3
			C101.7,73.4,102.5,74.1,102.5,75z"/>
		<path class="st0" d="M112.1,7.9H11.9c-4.7,0-8.6,3.8-8.6,8.6v80.1c0,4.7,3.8,8.6,8.6,8.6h100.2c4.7,0,8.6-3.8,8.6-8.6V16.5
			C120.7,11.7,116.8,7.9,112.1,7.9z M113.5,96.6c0,0.8-0.6,1.4-1.4,1.4H11.9c-0.8,0-1.4-0.6-1.4-1.4V16.5c0-0.8,0.6-1.4,1.4-1.4
			h100.2c0.8,0,1.4,0.6,1.4,1.4V96.6z"/>
		<path class="st0" d="M39.1,29.8V38c0,0.9-0.7,1.6-1.6,1.6H23.2c-0.9,0-1.6-0.7-1.6-1.6v-8.2c0-0.9,0.7-1.6,1.6-1.6h14.3
			C38.4,28.1,39.1,28.9,39.1,29.8z"/>
		<path class="st0" d="M39.1,44.9v8.2c0,0.9-0.7,1.6-1.6,1.6H23.2c-0.9,0-1.6-0.7-1.6-1.6v-8.2c0-0.9,0.7-1.6,1.6-1.6h14.3
			C38.4,43.2,39.1,43.9,39.1,44.9z"/>
		<path class="st0" d="M39.1,59.9v8.2c0,0.9-0.7,1.6-1.6,1.6H23.2c-0.9,0-1.6-0.7-1.6-1.6v-8.2c0-0.9,0.7-1.6,1.6-1.6h14.3
			C38.4,58.3,39.1,59,39.1,59.9z"/>
		<path class="st0" d="M39.1,75v8.2c0,0.9-0.7,1.6-1.6,1.6H23.2c-0.9,0-1.6-0.7-1.6-1.6V75c0-0.9,0.7-1.6,1.6-1.6h14.3
			C38.4,73.4,39.1,74.1,39.1,75z"/>
		<path class="st0" d="M60.2,29.8V38c0,0.9-0.7,1.6-1.6,1.6H44.3c-0.9,0-1.6-0.7-1.6-1.6v-8.2c0-0.9,0.7-1.6,1.6-1.6h14.3
			C59.5,28.1,60.2,28.9,60.2,29.8z"/>
		<path class="st0" d="M60.2,44.9v8.2c0,0.9-0.7,1.6-1.6,1.6H44.3c-0.9,0-1.6-0.7-1.6-1.6v-8.2c0-0.9,0.7-1.6,1.6-1.6h14.3
			C59.5,43.2,60.2,43.9,60.2,44.9z"/>
		<path class="st0" d="M60.2,59.9v8.2c0,0.9-0.7,1.6-1.6,1.6H44.3c-0.9,0-1.6-0.7-1.6-1.6v-8.2c0-0.9,0.7-1.6,1.6-1.6h14.3
			C59.5,58.3,60.2,59,60.2,59.9z"/>
		<path class="st0" d="M60.2,75v8.2c0,0.9-0.7,1.6-1.6,1.6H44.3c-0.9,0-1.6-0.7-1.6-1.6V75c0-0.9,0.7-1.6,1.6-1.6h14.3
			C59.5,73.4,60.2,74.1,60.2,75z"/>
		<path class="st0" d="M81.3,29.8V38c0,0.9-0.7,1.6-1.6,1.6H65.4c-0.9,0-1.6-0.7-1.6-1.6v-8.2c0-0.9,0.7-1.6,1.6-1.6h14.3
			C80.6,28.1,81.3,28.9,81.3,29.8z"/>
		<path class="st0" d="M81.3,44.9v8.2c0,0.9-0.7,1.6-1.6,1.6H65.4c-0.9,0-1.6-0.7-1.6-1.6v-8.2c0-0.9,0.7-1.6,1.6-1.6h14.3
			C80.6,43.2,81.3,43.9,81.3,44.9z"/>
		<path class="st0" d="M81.3,59.9v8.2c0,0.9-0.7,1.6-1.6,1.6H65.4c-0.9,0-1.6-0.7-1.6-1.6v-8.2c0-0.9,0.7-1.6,1.6-1.6h14.3
			C80.6,58.3,81.3,59,81.3,59.9z"/>
		<path class="st0" d="M81.3,75v8.2c0,0.9-0.7,1.6-1.6,1.6H65.4c-0.9,0-1.6-0.7-1.6-1.6V75c0-0.9,0.7-1.6,1.6-1.6h14.3
			C80.6,73.4,81.3,74.1,81.3,75z"/>
		<path class="st0" d="M102.5,29.8V38c0,0.9-0.7,1.6-1.6,1.6H86.6c-0.9,0-1.6-0.7-1.6-1.6v-8.2c0-0.9,0.7-1.6,1.6-1.6h14.3
			C101.7,28.1,102.5,28.9,102.5,29.8z"/>
		<path class="st0" d="M102.5,44.9v8.2c0,0.9-0.7,1.6-1.6,1.6H86.6c-0.9,0-1.6-0.7-1.6-1.6v-8.2c0-0.9,0.7-1.6,1.6-1.6h14.3
			C101.7,43.2,102.5,43.9,102.5,44.9z"/>
		<path class="st0" d="M102.5,59.9v8.2c0,0.9-0.7,1.6-1.6,1.6H86.6c-0.9,0-1.6-0.7-1.6-1.6v-8.2c0-0.9,0.7-1.6,1.6-1.6h14.3
			C101.7,58.3,102.5,59,102.5,59.9z"/>
		<path class="st0" d="M102.5,75v8.2c0,0.9-0.7,1.6-1.6,1.6H86.6c-0.9,0-1.6-0.7-1.6-1.6V75c0-0.9,0.7-1.6,1.6-1.6h14.3
			C101.7,73.4,102.5,74.1,102.5,75z"/>
		<path class="st0" d="M39.1,29.8V38c0,0.9-0.7,1.6-1.6,1.6H23.2c-0.9,0-1.6-0.7-1.6-1.6v-8.2c0-0.9,0.7-1.6,1.6-1.6h14.3
			C38.4,28.1,39.1,28.9,39.1,29.8z"/>
		<path class="st0" d="M60.2,29.8V38c0,0.9-0.7,1.6-1.6,1.6H44.3c-0.9,0-1.6-0.7-1.6-1.6v-8.2c0-0.9,0.7-1.6,1.6-1.6h14.3
			C59.5,28.1,60.2,28.9,60.2,29.8z"/>
		<path class="st0" d="M81.3,29.8V38c0,0.9-0.7,1.6-1.6,1.6H65.4c-0.9,0-1.6-0.7-1.6-1.6v-8.2c0-0.9,0.7-1.6,1.6-1.6h14.3
			C80.6,28.1,81.3,28.9,81.3,29.8z"/>
		<path class="st0" d="M102.5,29.8V38c0,0.9-0.7,1.6-1.6,1.6H86.6c-0.9,0-1.6-0.7-1.6-1.6v-8.2c0-0.9,0.7-1.6,1.6-1.6h14.3
			C101.7,28.1,102.5,28.9,102.5,29.8z"/>
		<path class="st0" d="M39.1,44.9v8.2c0,0.9-0.7,1.6-1.6,1.6H23.2c-0.9,0-1.6-0.7-1.6-1.6v-8.2c0-0.9,0.7-1.6,1.6-1.6h14.3
			C38.4,43.2,39.1,43.9,39.1,44.9z"/>
		<path class="st0" d="M60.2,44.9v8.2c0,0.9-0.7,1.6-1.6,1.6H44.3c-0.9,0-1.6-0.7-1.6-1.6v-8.2c0-0.9,0.7-1.6,1.6-1.6h14.3
			C59.5,43.2,60.2,43.9,60.2,44.9z"/>
		<path class="st0" d="M81.3,44.9v8.2c0,0.9-0.7,1.6-1.6,1.6H65.4c-0.9,0-1.6-0.7-1.6-1.6v-8.2c0-0.9,0.7-1.6,1.6-1.6h14.3
			C80.6,43.2,81.3,43.9,81.3,44.9z"/>
		<path class="st0" d="M102.5,44.9v8.2c0,0.9-0.7,1.6-1.6,1.6H86.6c-0.9,0-1.6-0.7-1.6-1.6v-8.2c0-0.9,0.7-1.6,1.6-1.6h14.3
			C101.7,43.2,102.5,43.9,102.5,44.9z"/>
		<path class="st0" d="M39.1,59.9v8.2c0,0.9-0.7,1.6-1.6,1.6H23.2c-0.9,0-1.6-0.7-1.6-1.6v-8.2c0-0.9,0.7-1.6,1.6-1.6h14.3
			C38.4,58.3,39.1,59,39.1,59.9z"/>
		<path class="st0" d="M60.2,59.9v8.2c0,0.9-0.7,1.6-1.6,1.6H44.3c-0.9,0-1.6-0.7-1.6-1.6v-8.2c0-0.9,0.7-1.6,1.6-1.6h14.3
			C59.5,58.3,60.2,59,60.2,59.9z"/>
		<path class="st0" d="M81.3,59.9v8.2c0,0.9-0.7,1.6-1.6,1.6H65.4c-0.9,0-1.6-0.7-1.6-1.6v-8.2c0-0.9,0.7-1.6,1.6-1.6h14.3
			C80.6,58.3,81.3,59,81.3,59.9z"/>
		<path class="st0" d="M102.5,59.9v8.2c0,0.9-0.7,1.6-1.6,1.6H86.6c-0.9,0-1.6-0.7-1.6-1.6v-8.2c0-0.9,0.7-1.6,1.6-1.6h14.3
			C101.7,58.3,102.5,59,102.5,59.9z"/>
		<path class="st0" d="M39.1,75v8.2c0,0.9-0.7,1.6-1.6,1.6H23.2c-0.9,0-1.6-0.7-1.6-1.6V75c0-0.9,0.7-1.6,1.6-1.6h14.3
			C38.4,73.4,39.1,74.1,39.1,75z"/>
		<path class="st0" d="M60.2,75v8.2c0,0.9-0.7,1.6-1.6,1.6H44.3c-0.9,0-1.6-0.7-1.6-1.6V75c0-0.9,0.7-1.6,1.6-1.6h14.3
			C59.5,73.4,60.2,74.1,60.2,75z"/>
		<path class="st0" d="M81.3,75v8.2c0,0.9-0.7,1.6-1.6,1.6H65.4c-0.9,0-1.6-0.7-1.6-1.6V75c0-0.9,0.7-1.6,1.6-1.6h14.3
			C80.6,73.4,81.3,74.1,81.3,75z"/>
		<path class="st0" d="M102.5,75v8.2c0,0.9-0.7,1.6-1.6,1.6H86.6c-0.9,0-1.6-0.7-1.6-1.6V75c0-0.9,0.7-1.6,1.6-1.6h14.3
			C101.7,73.4,102.5,74.1,102.5,75z"/>
		<path class="st0" d="M62.5,21.7h-1c-1.5,0-2.7-1.2-2.7-2.7V2.6c0-1.5,1.2-2.7,2.7-2.7l1,0c1.5,0,2.7,1.2,2.7,2.7V19
			C65.3,20.5,64,21.7,62.5,21.7z"/>
		<path class="st0" d="M94.2,22.3h-1c-1.5,0-2.7-1.2-2.7-2.7V3.2c0-1.5,1.2-2.7,2.7-2.7h1c1.5,0,2.7,1.2,2.7,2.7v16.4
			C97,21.1,95.7,22.3,94.2,22.3z"/>
		<path class="st0" d="M30.8,21.7h-1c-1.5,0-2.7-1.2-2.7-2.7V2.6c0-1.5,1.2-2.7,2.7-2.7l1,0c1.5,0,2.7,1.2,2.7,2.7V19
			C33.6,20.5,32.3,21.7,30.8,21.7z"/>
	</g>
</g>
<g id="Text">
</g>
</svg>
