<?xml version="1.0" encoding="utf-8"?>
<!-- Generator: Adobe Illustrator 19.1.0, SVG Export Plug-In . SVG Version: 6.00 Build 0)  -->
<!DOCTYPE svg PUBLIC "-//W3C//DTD SVG 1.1//EN" "http://www.w3.org/Graphics/SVG/1.1/DTD/svg11.dtd">
<svg version="1.1" xmlns="http://www.w3.org/2000/svg" xmlns:xlink="http://www.w3.org/1999/xlink" x="0px" y="0px"
	 viewBox="0 0 32 32" style="enable-background:new 0 0 32 32;" xml:space="preserve">
<style type="text/css">
	.st0{fill:#7C666D;}
</style>
<g id="Buttons">
</g>
<g id="Layer_1">
</g>
<g id="Icons">
	<path class="st0" d="M16,0C7.2,0,0,7.2,0,16c0,8.8,7.2,16,16,16c8.8,0,16-7.2,16-16C32,7.2,24.8,0,16,0z M16,30C8.3,30,2,23.7,2,16
		C2,8.3,8.3,2,16,2s14,6.3,14,14C30,23.7,23.7,30,16,30z"/>
	<g>
		<path class="st0" d="M13.9,24.7v-9.3h-1.7V13h1.7v-1c0-1.3,0.4-2.3,1.1-3c0.7-0.7,1.8-1.1,3.1-1.1c0.4,0,1,0.1,1.6,0.2l0,2.4
			c-0.3-0.1-0.6-0.1-0.9-0.1c-1.2,0-1.8,0.6-1.8,1.7V13h2.3v2.3h-2.3v9.3H13.9z"/>
	</g>
</g>
</svg>
