<svg xmlns="http://www.w3.org/2000/svg" viewBox="0 0 124 105" enable-background="new 0 0 124 105"><style type="text/css">.st0{fill:#0F1131;}</style><g id="Images"><path class="st0" d="M52 52.6v52.5h-35.9c-2.6 0-4.7-2.1-4.7-4.7v-47.8h40.6zM112.6 52.6v47.9c0 2.6-2.1 4.7-4.7 4.7h-35.9v-52.6h40.6zM52 27v21.9h-39.5c-2.6 0-4.7-2.1-4.7-4.7v-12.5c0-2.6 2.1-4.7 4.7-4.7h39.5zM116.2 31.7v12.6c0 2.6-2.1 4.7-4.7 4.7h-39.5v-22h39.5c2.6 0 4.7 2.1 4.7 4.7zM100.9 1.7c10.8 6.9 7.3 20.7-3.9 20.7h-25v-11c0 .1 17.9-16.7 28.9-9.7zM23.1 1.7c-10.8 6.9-7.3 20.7 3.9 20.7h25v-11c0 .1-17.9-16.7-28.9-9.7zM56.3 27h11.4v78.1h-11.4zM68.6 14.1v9.3h-13.2v-9.3c0-1.4 1.2-2.6 2.6-2.6h8c1.5 0 2.6 1.1 2.6 2.6z"/></g></svg>