<svg xmlns="http://www.w3.org/2000/svg" viewBox="0 0 124 105" enable-background="new 0 0 124 105"><style type="text/css">.st0{fill:#0F1131;}</style><g id="Images"><path class="st0" d="M102.7 75c0 6.7-8.4 12.2-18.7 12.2-.6 0-1.2 0-1.8-.1-2.2-3.3-6.3-6-11.3-7.3 2.6-2.8 4.2-7 4.2-11.7 0-1.3-.1-2.5-.4-3.7.8-.3 1.7-.6 2.6-.8l2.8-.7-2-2.1c-2.4-2.6-3.8-6.4-3.8-10.5 0-7.4 4.4-13.4 9.7-13.4 5.4 0 9.7 6 9.7 13.4 0 4.1-1.4 8-3.8 10.6l-2 2.1 2.8.7c7.3 1.7 12 6.3 12 11.3zM102.7 75c0 6.7-8.4 12.2-18.7 12.2-.6 0-1.2 0-1.8-.1-2.2-3.3-6.3-6-11.3-7.3 2.6-2.8 4.2-7 4.2-11.7 0-1.3-.1-2.5-.4-3.7.8-.3 1.7-.6 2.6-.8l2.8-.7-2-2.1c-2.4-2.6-3.8-6.4-3.8-10.5 0-7.4 4.4-13.4 9.7-13.4 5.4 0 9.7 6 9.7 13.4 0 4.1-1.4 8-3.8 10.6l-2 2.1 2.8.7c7.3 1.7 12 6.3 12 11.3zM56.5 79.8c-4.2 1.1-7.7 3-10 5.5-1.1.1-2.2.2-3.3.2-10.3 0-18.7-5.5-18.7-12.2 0-5 4.8-9.6 12-11.4l2.8-.7-2-2.1c-2.4-2.6-3.8-6.4-3.8-10.5 0-7.4 4.4-13.4 9.7-13.4 5.4 0 9.7 6 9.7 13.4 0 4.1-1.4 8-3.8 10.6l-2 2.1 2.8.7c1 .3 2 .6 3 1-.5 1.6-.7 3.4-.7 5.2.1 4.6 1.7 8.8 4.3 11.6zM82.3 92.8c0 6.7-8.4 12.2-18.7 12.2-10.3 0-18.7-5.5-18.7-12.2 0-2.1.9-4.2 2.4-5.9.7-.8 1.5-1.5 2.4-2.2 1.9-1.4 4.4-2.6 7.2-3.3l.2-.1 2.6-.7-.8-.9-1.1-1.2c-2.4-2.5-3.8-6.3-3.8-10.4 0-1.6.2-3.1.6-4.5.1-.6.3-1.1.5-1.6 1.6-4.3 4.9-7.2 8.6-7.2 4.1 0 7.7 3.6 9.1 8.6.2.5.3 1.1.4 1.7.2 1 .3 2 .3 3.1 0 4.1-1.4 8-3.8 10.6l-2 2.1 2.8.7c4 1.1 7.3 3 9.4 5.4.5.6 1 1.2 1.3 1.9.7 1.1 1.1 2.5 1.1 3.9zM56.5 79.8c-4.2 1.1-7.7 3-10 5.5-1.1.1-2.2.2-3.3.2-10.3 0-18.7-5.5-18.7-12.2 0-5 4.8-9.6 12-11.4l2.8-.7-2-2.1c-2.4-2.6-3.8-6.4-3.8-10.5 0-7.4 4.4-13.4 9.7-13.4 5.4 0 9.7 6 9.7 13.4 0 4.1-1.4 8-3.8 10.6l-2 2.1 2.8.7c1 .3 2 .6 3 1-.5 1.6-.7 3.4-.7 5.2.1 4.6 1.7 8.8 4.3 11.6zM90.3 24.3l-5.4-3.8c-1.1-.8-1.4-2.3-.6-3.4.8-1.1 2.3-1.4 3.4-.6l3.7 2.6 10.6-10.1c1-.9 2.5-.9 3.5.1.9 1 .9 2.5-.1 3.5l-12 11.5c-.8.8-2.1.9-3.1.2zM6.3 7.3v17.9c0 4 3.3 7.3 7.3 7.3h1.3l9.4 9.4c.6.6 1.3.8 2 .8 1.5 0 2.9-1.1 2.9-2.9v-7.4h16.8c4 0 7.3-3.3 7.3-7.3v-17.8c0-4-3.3-7.3-7.3-7.3h-32.4c-4 0-7.3 3.2-7.3 7.3zm3.4 0c0-2.2 1.7-3.9 3.9-3.9h32.3c2.2 0 3.9 1.7 3.9 3.9v17.9c0 2.1-1.7 3.9-3.9 3.9h-21.3v6.7l-6.7-6.7h-4.3c-1 0-1.8-.3-2.5-.9-.8-.7-1.4-1.8-1.4-3v-17.9zM110.2 0h-32.3c-4 0-7.3 3.3-7.3 7.3v17.9c0 4 3.3 7.3 7.3 7.3h16.8v7.4c0 1.7 1.4 2.9 2.9 2.9.7 0 1.4-.3 2-.8l9.4-9.4h1.3c4 0 7.3-3.3 7.3-7.3v-18c-.2-4.1-3.4-7.3-7.4-7.3zm3.8 25.2c0 1.2-.5 2.3-1.4 3-.7.6-1.6.9-2.5.9h-4.3l-6.7 6.7v-6.7h-21.2c-2.2 0-3.9-1.8-3.9-3.9v-17.9c0-2.2 1.7-3.9 3.9-3.9h32.3c2.1 0 3.9 1.7 3.9 3.9v17.9z"/><circle class="st0" cx="29.7" cy="16.5" r="2.8"/><circle class="st0" cx="19.2" cy="16.5" r="2.8"/><circle class="st0" cx="40.6" cy="16.5" r="2.8"/></g></svg>