<?xml version="1.0" encoding="utf-8"?>
<!-- Generator: Adobe Illustrator 19.1.0, SVG Export Plug-In . SVG Version: 6.00 Build 0)  -->
<!DOCTYPE svg PUBLIC "-//W3C//DTD SVG 1.1//EN" "http://www.w3.org/Graphics/SVG/1.1/DTD/svg11.dtd">
<svg version="1.1" xmlns="http://www.w3.org/2000/svg" xmlns:xlink="http://www.w3.org/1999/xlink" x="0px" y="0px"
	 viewBox="0 0 124 105" style="enable-background:new 0 0 124 105;" xml:space="preserve">
<style type="text/css">
	.st0{fill:#0F1131;}
</style>
<g id="Buttons">
</g>
<g id="Layer_1">
</g>
<g id="Icons">
</g>
<g id="Images">
	<g>
		<g>
			<path class="st0" d="M102.7,75c0,6.7-8.4,12.2-18.7,12.2c-0.6,0-1.2,0-1.8-0.1c-2.2-3.3-6.3-6-11.3-7.3c2.6-2.8,4.2-7,4.2-11.7
				c0-1.3-0.1-2.5-0.4-3.7c0.8-0.3,1.7-0.6,2.6-0.8l2.8-0.7l-2-2.1c-2.4-2.6-3.8-6.4-3.8-10.5c0-7.4,4.4-13.4,9.7-13.4
				c5.4,0,9.7,6,9.7,13.4c0,4.1-1.4,8-3.8,10.6l-2,2.1l2.8,0.7C98,65.4,102.7,70,102.7,75z"/>
			<path class="st0" d="M102.7,75c0,6.7-8.4,12.2-18.7,12.2c-0.6,0-1.2,0-1.8-0.1c-2.2-3.3-6.3-6-11.3-7.3c2.6-2.8,4.2-7,4.2-11.7
				c0-1.3-0.1-2.5-0.4-3.7c0.8-0.3,1.7-0.6,2.6-0.8l2.8-0.7l-2-2.1c-2.4-2.6-3.8-6.4-3.8-10.5c0-7.4,4.4-13.4,9.7-13.4
				c5.4,0,9.7,6,9.7,13.4c0,4.1-1.4,8-3.8,10.6l-2,2.1l2.8,0.7C98,65.4,102.7,70,102.7,75z"/>
			<path class="st0" d="M56.5,79.8c-4.2,1.1-7.7,3-10,5.5c-1.1,0.1-2.2,0.2-3.3,0.2c-10.3,0-18.7-5.5-18.7-12.2c0-5,4.8-9.6,12-11.4
				l2.8-0.7l-2-2.1c-2.4-2.6-3.8-6.4-3.8-10.5c0-7.4,4.4-13.4,9.7-13.4c5.4,0,9.7,6,9.7,13.4c0,4.1-1.4,8-3.8,10.6l-2,2.1l2.8,0.7
				c1,0.3,2,0.6,3,1c-0.5,1.6-0.7,3.4-0.7,5.2C52.3,72.8,53.9,77,56.5,79.8z"/>
			<path class="st0" d="M82.3,92.8c0,6.7-8.4,12.2-18.7,12.2c-10.3,0-18.7-5.5-18.7-12.2c0-2.1,0.9-4.2,2.4-5.9
				c0.7-0.8,1.5-1.5,2.4-2.2c1.9-1.4,4.4-2.6,7.2-3.3l0.2-0.1l2.6-0.7l-0.8-0.9l-1.1-1.2C55.4,76,54,72.2,54,68.1
				c0-1.6,0.2-3.1,0.6-4.5c0.1-0.6,0.3-1.1,0.5-1.6c1.6-4.3,4.9-7.2,8.6-7.2c4.1,0,7.7,3.6,9.1,8.6c0.2,0.5,0.3,1.1,0.4,1.7
				c0.2,1,0.3,2,0.3,3.1c0,4.1-1.4,8-3.8,10.6l-2,2.1l2.8,0.7c4,1.1,7.3,3,9.4,5.4c0.5,0.6,1,1.2,1.3,1.9
				C81.9,90,82.3,91.4,82.3,92.8z"/>
			<path class="st0" d="M56.5,79.8c-4.2,1.1-7.7,3-10,5.5c-1.1,0.1-2.2,0.2-3.3,0.2c-10.3,0-18.7-5.5-18.7-12.2c0-5,4.8-9.6,12-11.4
				l2.8-0.7l-2-2.1c-2.4-2.6-3.8-6.4-3.8-10.5c0-7.4,4.4-13.4,9.7-13.4c5.4,0,9.7,6,9.7,13.4c0,4.1-1.4,8-3.8,10.6l-2,2.1l2.8,0.7
				c1,0.3,2,0.6,3,1c-0.5,1.6-0.7,3.4-0.7,5.2C52.3,72.8,53.9,77,56.5,79.8z"/>
		</g>
		<g>
			<g>
				<path class="st0" d="M90.3,24.3l-5.4-3.8c-1.1-0.8-1.4-2.3-0.6-3.4l0,0c0.8-1.1,2.3-1.4,3.4-0.6l3.7,2.6L102,9
					c1-0.9,2.5-0.9,3.5,0.1l0,0c0.9,1,0.9,2.5-0.1,3.5l-12,11.5C92.6,24.9,91.3,25,90.3,24.3z"/>
			</g>
			<path class="st0" d="M6.3,7.3v17.9c0,4,3.3,7.3,7.3,7.3h1.3l9.4,9.4c0.6,0.6,1.3,0.8,2,0.8c1.5,0,2.9-1.1,2.9-2.9v-7.4h16.8
				c4,0,7.3-3.3,7.3-7.3V7.3c0-4-3.3-7.3-7.3-7.3L13.6,0C9.6,0,6.3,3.2,6.3,7.3z M9.7,7.3c0-2.2,1.7-3.9,3.9-3.9h32.3
				c2.2,0,3.9,1.7,3.9,3.9v17.9c0,2.1-1.7,3.9-3.9,3.9H24.6v6.7l-6.7-6.7h-4.3c-1,0-1.8-0.3-2.5-0.9c-0.8-0.7-1.4-1.8-1.4-3V7.3z"/>
			<path class="st0" d="M110.2,0H77.9c-4,0-7.3,3.3-7.3,7.3v17.9c0,4,3.3,7.3,7.3,7.3h16.8v7.4c0,1.7,1.4,2.9,2.9,2.9
				c0.7,0,1.4-0.3,2-0.8l9.4-9.4h1.3c4,0,7.3-3.3,7.3-7.3V7.3C117.4,3.2,114.2,0,110.2,0z M114,25.2c0,1.2-0.5,2.3-1.4,3
				c-0.7,0.6-1.6,0.9-2.5,0.9h-4.3l-6.7,6.7v-6.7H77.9c-2.2,0-3.9-1.8-3.9-3.9V7.3c0-2.2,1.7-3.9,3.9-3.9h32.3
				c2.1,0,3.9,1.7,3.9,3.9V25.2z"/>
			<circle class="st0" cx="29.7" cy="16.5" r="2.8"/>
			<circle class="st0" cx="19.2" cy="16.5" r="2.8"/>
			<circle class="st0" cx="40.6" cy="16.5" r="2.8"/>
		</g>
	</g>
</g>
<g id="Background">
</g>
</svg>
