<svg xmlns="http://www.w3.org/2000/svg" viewBox="0 0 32 32" enable-background="new 0 0 32 32"><style type="text/css">.st0{fill:#7C666D;}</style><path class="st0" d="M23.3 7.6h-14.6c-.6 0-1.1.5-1.1 1.1v14.6c0 .6.5 1.1 1.1 1.1h14.6c.6 0 1.1-.5 1.1-1.1v-14.6c0-.6-.5-1.1-1.1-1.1zm-7.3 5.5c.9 0 1.7.4 2.2 1 .5.5.8 1.2.8 2 0 1.7-1.3 3-3 3-1.6 0-3-1.3-3-3 0-.8.3-1.5.8-2 .5-.6 1.3-1 2.2-1zm6.7 8.8c0 .5-.4.9-.9.9h-11.6c-.5 0-.9-.4-.9-.9v-7.7h2.5c-.3.6-.4 1.2-.4 1.9 0 2.5 2 4.5 4.5 4.5s4.5-2 4.5-4.5c0-.7-.1-1.3-.4-1.9h2.5v7.7zm0-10c0 .4-.3.7-.7.7h-1.8c-.4 0-.7-.3-.7-.7v-1.8c0-.4.3-.7.7-.7h1.8c.4 0 .7.3.7.7v1.8zm-6.7-11.9c-8.8 0-16 7.2-16 16s7.2 16 16 16 16-7.2 16-16-7.2-16-16-16zm0 30c-7.7 0-14-6.3-14-14s6.3-14 14-14 14 6.3 14 14-6.3 14-14 14z" id="Icons"/></svg>