<?xml version="1.0" encoding="utf-8"?>
<!-- Generator: Adobe Illustrator 19.1.0, SVG Export Plug-In . SVG Version: 6.00 Build 0)  -->
<!DOCTYPE svg PUBLIC "-//W3C//DTD SVG 1.1//EN" "http://www.w3.org/Graphics/SVG/1.1/DTD/svg11.dtd">
<svg version="1.1" id="Layer_1" xmlns="http://www.w3.org/2000/svg" xmlns:xlink="http://www.w3.org/1999/xlink" x="0px" y="0px"
	 viewBox="-384 603.7 50 25.6" style="enable-background:new -384 603.7 50 25.6;" xml:space="preserve">
<style type="text/css">
	.st0{fill:#FFFFFF;}
</style>
<g>
	<path class="st0" d="M-374.3,623.4c2.2,0,3.5-1.2,3.8-3.6h-7.5C-377.6,622.2-376.4,623.4-374.3,623.4z"/>
	<path class="st0" d="M-355.8,613.6c-0.4-0.6-1.2-0.8-2.2-0.8c-1.4,0-2.4,0.4-3.1,1.2c-0.7,0.7-1,1.9-1,3.6h7.1v-1.4
		C-355.1,615.1-355.4,614.1-355.8,613.6z"/>
	<path class="st0" d="M-374.3,612.7c-1.4,0-2.4,0.4-3.1,1.4c-0.4,0.8-0.8,1.9-0.8,3.5h7.9C-370.4,614.3-371.8,612.7-374.3,612.7z"/>
	<path class="st0" d="M-345.8,622.3c0.8,0.8,1.8,1.2,3.2,1.2c1,0,1.8-0.1,2.5-0.3c0.8-0.1,1.7-0.4,2.5-0.8v2.6
		c-0.8,0.4-1.7,0.7-2.5,0.8c-0.8,0.1-1.8,0.3-2.8,0.3c-2.4,0-4.3-0.7-5.7-2.1c-1.1-1.1-1.7-2.5-1.9-4.2h-1.5v6.1h-3.3V620h-7.1v6.1
		h-3.3V620h-1.7c-0.3,1.7-0.8,3.2-1.8,4.2c-1.2,1.4-3.1,2.1-5.4,2.1c-1.4,0-2.8-0.3-3.9-1s-1.9-1.5-2.5-2.8
		c-0.4-0.8-0.7-1.7-0.8-2.5h-2.1v9.3h50V620h-12.9C-346.8,620.8-346.4,621.6-345.8,622.3z"/>
	<path class="st0" d="M-379.7,612.2c1.1-1.1,2.4-1.8,4-2.1l-2.4-2.4l1.1-1.8h5.3l1.1,1.8l-2.4,2.4c1.7,0.3,2.9,1,4,2.1
		c1.2,1.4,1.8,3.2,1.9,5.4h1.5v-7.4h2.6l0.4,2.1h0.1c0.4-0.7,1.1-1.2,1.9-1.7c0.8-0.4,1.8-0.6,2.9-0.6c3.8,0,5.6,1.9,5.6,5.7v1.8
		h1.4c0.1-2.2,0.7-4,1.9-5.4c1.2-1.4,3.1-2.2,5.1-2.2c2.1,0,3.6,0.6,4.9,1.8s1.8,2.9,1.8,5.1v0.7h2.6v-13.9h-50v13.9h2.5
		C-381.5,615.2-380.8,613.4-379.7,612.2z"/>
	<path class="st0" d="M-343.3,612.5c-1.1,0-1.9,0.3-2.5,1c-0.7,0.7-1,1.7-1.1,2.9h7.1c0-1.2-0.3-2.2-1-2.9
		C-341.5,612.9-342.3,612.5-343.3,612.5z"/>
</g>
</svg>
