<svg xmlns="http://www.w3.org/2000/svg" viewBox="0 0 50 25.4" enable-background="new 0 0 50 25.4"><style type="text/css">.st0{fill:#7C666D;}</style><path class="st0" d="M9.8 19.7c2.2 0 3.4-1.2 3.8-3.7h-7.7c.4 2.5 1.7 3.7 3.9 3.7zM28.2 9.9c-.5-.6-1.3-.9-2.3-.9-1.4 0-2.4.4-3.1 1.2-.6.7-.9 1.9-1 3.6h7v-1.3c.1-1.1-.1-2-.6-2.6zM9.8 9c-1.4 0-2.4.5-3 1.4-.6.8-.9 2-.9 3.5h7.9c-.2-3.3-1.5-4.9-4-4.9zM38.2 18.6c.8.8 1.8 1.2 3.2 1.2.9 0 1.8-.1 2.6-.3.8-.2 1.6-.5 2.5-.9v2.7c-.8.4-1.6.7-2.4.8-.8.2-1.8.2-2.8.2-2.4 0-4.3-.7-5.7-2.1-1.1-1.1-1.7-2.5-1.9-4.2h-1.5v6.1h-3.3v-6.1h-7v6.1h-3.3v-6.1h-1.6c-.2 1.7-.8 3.1-1.8 4.2-1.3 1.4-3.1 2.1-5.4 2.1-1.4 0-2.7-.3-3.8-1-1.1-.7-2-1.6-2.6-2.8-.5-.7-.7-1.5-.9-2.5h-2.5v9.4h50v-9.4h-12.9c.1 1.1.5 1.9 1.1 2.6zM4.4 8.4c1-1.1 2.3-1.8 4-2l-2.4-2.4 1.1-1.8h5.3l1.2 1.8-2.4 2.4c1.6.2 2.9.9 4 2.1 1.2 1.3 1.9 3.1 2 5.4h1.5v-7.3h2.6l.5 2h.2c.5-.7 1.1-1.3 2-1.7.9-.4 1.8-.6 2.9-.6 3.7 0 5.6 1.9 5.6 5.7v1.9h1.4c.1-2.2.7-4 1.9-5.4 1.3-1.4 3-2.2 5.2-2.2 2 0 3.7.6 4.8 1.9 1.2 1.2 1.8 3 1.8 5.1v.5h2.4v-13.8h-50v13.8h2.4c.1-2.2.8-4.1 2-5.4zM40.7 8.8c-1 0-1.9.3-2.5 1-.6.7-1 1.6-1.1 2.9h7c0-1.3-.3-2.2-.9-2.9-.7-.7-1.5-1-2.5-1z"/></svg>