<?xml version="1.0" encoding="utf-8"?>
<!-- Generator: Adobe Illustrator 19.1.0, SVG Export Plug-In . SVG Version: 6.00 Build 0)  -->
<!DOCTYPE svg PUBLIC "-//W3C//DTD SVG 1.1//EN" "http://www.w3.org/Graphics/SVG/1.1/DTD/svg11.dtd">
<svg version="1.1" id="Layer_1" xmlns="http://www.w3.org/2000/svg" xmlns:xlink="http://www.w3.org/1999/xlink" x="0px" y="0px"
	 viewBox="-280 384.4 50 25.6" style="enable-background:new -280 384.4 50 25.6;" xml:space="preserve">
<style type="text/css">
	.st0{fill:#FFFFFF;}
</style>
<g>
	<path class="st0" d="M-270.4,404.2c2.2,0,3.4-1.2,3.8-3.7h-7.6C-273.9,403-272.6,404.2-270.4,404.2z"/>
	<path class="st0" d="M-252,394.4c-0.5-0.6-1.2-0.9-2.3-0.9c-1.4,0-2.4,0.4-3.1,1.2c-0.6,0.7-0.9,1.9-1,3.6h7v-1.2
		C-251.3,395.9-251.5,395-252,394.4z"/>
	<path class="st0" d="M-270.4,393.5c-1.4,0-2.4,0.5-3,1.4c-0.6,0.8-0.9,2-0.9,3.5h7.9C-266.6,395.1-267.9,393.5-270.4,393.5z"/>
	<path class="st0" d="M-242,403.1c0.8,0.8,1.8,1.2,3.2,1.2c0.9,0,1.8-0.1,2.6-0.3c0.8-0.2,1.6-0.5,2.5-0.9v2.7
		c-0.8,0.4-1.6,0.7-2.4,0.8c-0.8,0.2-1.8,0.2-2.8,0.2c-2.4,0-4.3-0.7-5.7-2.1c-1.1-1.1-1.7-2.5-1.9-4.2h-1.5v6.1h-3.3v-6.1h-7v6.1
		h-3.3v-6.1h-1.6c-0.2,1.7-0.8,3.1-1.8,4.2c-1.3,1.4-3.1,2.1-5.4,2.1c-1.4,0-2.7-0.3-3.8-1c-1.1-0.7-2-1.6-2.6-2.8
		c-0.4-0.8-0.6-1.6-0.8-2.5h-2.5v9.4h50v-9.4h-12.9C-243,401.6-242.6,402.4-242,403.1z"/>
	<path class="st0" d="M-275.8,392.9c1-1.1,2.3-1.8,4-2l-2.4-2.4l1.1-1.8h5.3l1.1,1.8l-2.4,2.4c1.6,0.2,2.9,0.9,4,2.1
		c1.2,1.3,1.9,3.1,2,5.4h1.5v-7.3h2.6l0.5,2h0.2c0.5-0.7,1.1-1.3,2-1.7c0.9-0.4,1.8-0.6,2.9-0.6c3.7,0,5.6,1.9,5.6,5.7v1.9h1.4
		c0.1-2.2,0.7-4,1.9-5.4c1.3-1.4,3-2.2,5.2-2.2c2,0,3.7,0.6,4.8,1.9c1.2,1.2,1.8,3,1.8,5.1v0.5h2.7v-13.8h-50v13.8h2.4
		C-277.7,396.1-277,394.2-275.8,392.9z"/>
	<path class="st0" d="M-239.5,393.3c-1,0-1.9,0.3-2.5,1s-1,1.6-1.1,2.9h7c0-1.3-0.3-2.2-0.9-2.9
		C-237.7,393.6-238.5,393.3-239.5,393.3z"/>
</g>
</svg>
