<svg xmlns="http://www.w3.org/2000/svg" viewBox="0 0 32 32" enable-background="new 0 0 32 32"><style type="text/css">.st0{fill:#7C666D;}</style><path class="st0" d="M7.6 9.1v14.4c0 .7.6 1.2 1.3 1.2h14.3c.7 0 1.3-.5 1.3-1.2v-14.4c0-.7-.6-1.2-1.3-1.2h-14.4c-.7 0-1.2.6-1.2 1.2zm2.7.5h11.4c.6 0 1.1.5 1.1 1v.8s-6.3 5.7-6.8 5.7l-6.8-5.7v-.8c0-.6.5-1 1.1-1zm9.8 6c1.5-1.2 2.7-2.4 2.7-2.4v7.6l-2.7-5.2zm-10.9-2.4s1.3 1.1 2.7 2.4l-2.7 5.4v-7.8zm11.9 9.8h-10.2c-.3 0-.6-.1-.8-.2l3.1-6.2c1.3 1.1 2.5 1.9 2.8 1.9.3 0 1.5-.9 2.8-1.9l3.2 6.1c-.3.3-.6.3-.9.3zm-5.1-23c-8.8 0-16 7.2-16 16s7.2 16 16 16 16-7.2 16-16-7.2-16-16-16zm0 30c-7.7 0-14-6.3-14-14s6.3-14 14-14 14 6.3 14 14-6.3 14-14 14z" id="Icons"/></svg>