<svg xmlns="http://www.w3.org/2000/svg" viewBox="0 0 167.6 124" enable-background="new 0 0 167.6 124"><style type="text/css">.st0{fill:#0F1131;}</style><g id="Text"><path class="st0" d="M167.6 5.3v103.2c0 2.6-2.7 4.8-5.5 4.8s-5.3-2.4-5.3-5l2.1-50h-6.7c-1.4 0-1.6-.7-1.6-2.1v-37.5c0-8.1 6.6-14.7 15.3-14.7.4 0 .9.1 1.2.4s.5.5.5.9zM15.8 4c.7 0 1.4.6 1.4 1.3v24c0 2.3-2.3 4.4-4.5 5.6l1.4 73.7c0 2.6-2.2 4.7-5 4.7h-.7c-2.9 0-5.2-2.2-5.2-4.9l1.8-73.5c-1.8-1.2-5-3.3-5-5.6v-24c0-.7.6-1.3 1.4-1.3h.5c.7 0 1.4.6 1.4 1.3v20.7h1.7v-20.7c0-.7.6-1.3 1.3-1.3.7 0 1.4.6 1.4 1.3v20.7h1.8v-20.7c0-.7.6-1.3 1.4-1.3h.5c.7 0 1.4.6 1.4 1.3v20.7h1.2v-20.7c0-.7.6-1.3 1.3-1.3h.5zM133.2 62c0 28.3-22.9 51.2-51.2 51.2-28.3 0-51.2-22.9-51.2-51.2 0-28.3 22.9-51.2 51.2-51.2 28.3 0 51.2 22.9 51.2 51.2zM82 0c-34.2 0-62 27.8-62 62s27.8 62 62 62 62-27.8 62-62-27.8-62-62-62zm0 117.5c-30.6 0-55.5-24.8-55.5-55.5s24.8-55.5 55.5-55.5 55.5 24.8 55.5 55.5-24.9 55.5-55.5 55.5z"/></g></svg>