<svg xmlns="http://www.w3.org/2000/svg" viewBox="0 0 32 32" enable-background="new 0 0 32 32"><style type="text/css">.st0{fill:#7C666D;}</style><path class="st0" d="M11.9 16.5l-.3.9c-.1.2-.3.3-.5.2-.7-.5-2.1-1.8-1.7-4.2.6-3.3 3-5.8 6.4-5.8 6.7 0 7.7 5.6 6.2 8.8-1.1 2.3-4.4 5-7.2 2.6l-.8 2.7c0 .1-.1.2-.2.3l-1.8 2.4c-.1.1-.2 0-.2-.1v-1.9c0-.7.1-1.5.3-2.2l1.3-4.6s-.7-1.4 0-2.7 1.4-1.4 2.1-1.2c.7.2 1 1.4.3 3.7-.8 2.3.6 2.8 1.1 2.9.5.1 2 .4 3.1-2.3 2.3-5.8-4.7-10.2-8.1-3.8 0 0-1.3 2.8-.1 4 .1.1.1.2.1.3zm4.1-16.5c-8.8 0-16 7.2-16 16s7.2 16 16 16 16-7.2 16-16-7.2-16-16-16zm0 30c-7.7 0-14-6.3-14-14s6.3-14 14-14 14 6.3 14 14-6.3 14-14 14z" id="Icons"/></svg>