<?xml version="1.0" encoding="utf-8"?>
<!-- Generator: Adobe Illustrator 19.1.0, SVG Export Plug-In . SVG Version: 6.00 Build 0)  -->
<!DOCTYPE svg PUBLIC "-//W3C//DTD SVG 1.1//EN" "http://www.w3.org/Graphics/SVG/1.1/DTD/svg11.dtd">
<svg version="1.1" xmlns="http://www.w3.org/2000/svg" xmlns:xlink="http://www.w3.org/1999/xlink" x="0px" y="0px"
	 viewBox="0 0 32 32" style="enable-background:new 0 0 32 32;" xml:space="preserve">
<style type="text/css">
	.st0{fill:#7C666D;}
</style>
<g id="Buttons">
</g>
<g id="Layer_1">
</g>
<g id="Icons">
	<path class="st0" d="M11.9,16.5l-0.3,0.9c-0.1,0.2-0.3,0.3-0.5,0.2c-0.7-0.5-2.1-1.8-1.7-4.2c0.6-3.3,3-5.8,6.4-5.8
		c6.7,0,7.7,5.6,6.2,8.8c-1.1,2.3-4.4,5-7.2,2.6L14,21.7c0,0.1-0.1,0.2-0.2,0.3l-1.8,2.4c-0.1,0.1-0.2,0-0.2-0.1l0-1.9
		c0-0.7,0.1-1.5,0.3-2.2l1.3-4.6c0,0-0.7-1.4,0-2.7s1.4-1.4,2.1-1.2c0.7,0.2,1,1.4,0.3,3.7c-0.8,2.3,0.6,2.8,1.1,2.9
		c0.5,0.1,2,0.4,3.1-2.3c2.3-5.8-4.7-10.2-8.1-3.8c0,0-1.3,2.8-0.1,4C11.9,16.3,11.9,16.4,11.9,16.5z"/>
	<path class="st0" d="M16,0C7.2,0,0,7.2,0,16c0,8.8,7.2,16,16,16c8.8,0,16-7.2,16-16C32,7.2,24.8,0,16,0z M16,30C8.3,30,2,23.7,2,16
		C2,8.3,8.3,2,16,2s14,6.3,14,14C30,23.7,23.7,30,16,30z"/>
</g>
</svg>
