<?xml version="1.0" encoding="utf-8"?>
<!-- Generator: Adobe Illustrator 19.1.0, SVG Export Plug-In . SVG Version: 6.00 Build 0)  -->
<!DOCTYPE svg PUBLIC "-//W3C//DTD SVG 1.1//EN" "http://www.w3.org/Graphics/SVG/1.1/DTD/svg11.dtd">
<svg version="1.1" xmlns="http://www.w3.org/2000/svg" xmlns:xlink="http://www.w3.org/1999/xlink" x="0px" y="0px"
	 viewBox="0 0 124 105" style="enable-background:new 0 0 124 105;" xml:space="preserve">
<style type="text/css">
	.st0{fill:#0F1131;}
</style>
<g id="Buttons">
</g>
<g id="Layer_1">
</g>
<g id="Icons">
</g>
<g id="Images">
	<path class="st0" d="M123.9,95.9l-7.3-16.5c-1-2.8-3.6-4.4-6.5-4.4H14c-2.9,0-5.5,1.4-6.5,4.2L0.1,96c-1.5,4.3,1.7,8.9,6.2,8.9
		h111.2C122.2,105,125.4,100.2,123.9,95.9z M74.3,101H49.7c-1,0-1.8-1.2-1.6-2.2l0.9-3.9c0.2-0.8,0.8-0.9,1.6-0.9h22.9
		c0.8,0,1.4,0,1.6,0.7l0.9,4.3C76.1,100,75.4,101,74.3,101z M110.4,89h-97c-1.7,0-2.7-1.7-1.9-3.2l3.2-5.7c0.4-0.7,1.1-1.1,1.9-1.1
		h90.3c0.8,0,1.4,0.4,1.8,1.1l3.6,5.6C113.1,87.1,112.1,89,110.4,89z"/>
	<path class="st0" d="M108.3,0H15.7C12,0,8.2,3.5,8.2,7.1v55.3c0,3.7,3.8,7.6,7.5,7.6h92.6c3.7,0,5.9-3.9,5.9-7.6V7.1
		C114.2,3.5,112,0,108.3,0z M106.2,61h-87V9h87V61z"/>
	<rect x="22.2" y="32" class="st0" width="59" height="24"/>
	<rect x="89.2" y="32" class="st0" width="14" height="24"/>
	<rect x="22.2" y="12" class="st0" width="81" height="16"/>
</g>
<g id="Text">
</g>
</svg>
